<svg xmlns="http://www.w3.org/2000/svg" xmlns:xlink="http://www.w3.org/1999/xlink" width="100"
    zoomAndPan="magnify" viewBox="0 0 75 74.999997" height="100" preserveAspectRatio="xMidYMid meet"
    version="1.0">
    <path fill="var(--av-bg)"
        d="M 75 37.5 C 75 58.203125 58.214844 74.984375 37.511719 74.984375 C 16.808594 74.984375 0.0273438 58.203125 0.0273438 37.5 C 0.0234375 16.792969 16.808594 0.0117188 37.511719 0.0117188 C 58.214844 0.0117188 75 16.792969 75 37.5 "
        fill-opacity="1" fill-rule="nonzero" />
    <path fill="var(--av-hair)"
        d="M 53.46875 32.382812 C 53.46875 32.382812 53.515625 45.75 52.957031 47.777344 C 52.398438 49.808594 50.609375 51.96875 50.609375 51.96875 C 50.609375 51.96875 49.296875 52.820312 48.339844 51.96875 L 48.339844 48.851562 L 47.265625 51.96875 C 47.265625 51.96875 44.597656 53.507812 41.578125 52.347656 C 38.558594 51.1875 41.578125 41.148438 41.578125 41.148438 L 53.472656 31.90625 "
        fill-opacity="1" fill-rule="nonzero" />
    <path fill="var(--av-hair)"
        d="M 21.570312 32.382812 C 21.570312 32.382812 21.527344 45.75 22.085938 47.777344 C 22.640625 49.808594 24.433594 51.96875 24.433594 51.96875 C 24.433594 51.96875 25.746094 52.820312 26.699219 51.96875 L 26.699219 48.851562 L 27.773438 51.96875 C 27.773438 51.96875 30.441406 53.507812 33.460938 52.347656 C 36.484375 51.1875 33.460938 41.148438 33.460938 41.148438 L 21.570312 31.90625 "
        fill-opacity="1" fill-rule="nonzero" />
    <path fill="var(--av-shirt)"
        d="M 59.378906 75.085938 C 57.527344 76.472656 55.539062 77.683594 53.433594 78.699219 C 53.113281 78.855469 52.792969 79 52.46875 79.148438 C 47.902344 81.195312 42.84375 82.332031 37.511719 82.332031 C 32.183594 82.332031 27.121094 81.195312 22.554688 79.148438 C 22.230469 79 21.90625 78.855469 21.589844 78.699219 C 19.484375 77.683594 17.496094 76.472656 15.644531 75.085938 C 15.96875 67.839844 19.816406 61.511719 25.519531 57.773438 C 28.964844 55.511719 33.085938 54.199219 37.511719 54.199219 C 38.1875 54.199219 38.855469 54.230469 39.511719 54.289062 C 43.179688 54.621094 46.585938 55.855469 49.503906 57.773438 C 52.128906 59.492188 54.359375 61.761719 56.035156 64.417969 C 58.003906 67.53125 59.203125 71.175781 59.378906 75.085938 "
        fill-opacity="1" fill-rule="nonzero" />
    <path fill="var(--av-skin)"
        d="M 49.503906 57.773438 C 49.167969 60.300781 48.054688 62.585938 46.40625 64.371094 C 44.195312 66.765625 41.03125 68.265625 37.511719 68.265625 C 31.875 68.265625 27.140625 64.410156 25.796875 59.191406 C 25.675781 58.730469 25.585938 58.253906 25.519531 57.773438 C 28.964844 55.511719 33.085938 54.199219 37.511719 54.199219 C 38.1875 54.199219 38.855469 54.226562 39.515625 54.289062 C 39.628906 54.300781 39.742188 54.3125 39.855469 54.324219 C 39.925781 54.332031 40 54.335938 40.066406 54.347656 C 40.148438 54.355469 40.226562 54.367188 40.300781 54.375 C 40.351562 54.378906 40.398438 54.386719 40.449219 54.394531 C 40.515625 54.402344 40.589844 54.414062 40.660156 54.421875 C 40.714844 54.429688 40.769531 54.441406 40.828125 54.449219 C 40.875 54.453125 40.921875 54.460938 40.96875 54.472656 C 41.050781 54.484375 41.128906 54.496094 41.210938 54.507812 C 41.558594 54.570312 41.90625 54.636719 42.246094 54.710938 L 42.476562 54.761719 C 42.519531 54.773438 42.566406 54.785156 42.609375 54.796875 C 42.6875 54.816406 42.773438 54.835938 42.851562 54.855469 C 42.867188 54.859375 42.878906 54.859375 42.886719 54.863281 C 42.988281 54.890625 43.09375 54.914062 43.191406 54.945312 C 43.300781 54.96875 43.410156 55 43.515625 55.03125 C 43.636719 55.066406 43.757812 55.101562 43.878906 55.136719 C 43.972656 55.167969 44.0625 55.195312 44.15625 55.226562 C 44.214844 55.246094 44.277344 55.265625 44.335938 55.28125 C 44.433594 55.3125 44.53125 55.347656 44.628906 55.382812 C 44.746094 55.421875 44.863281 55.460938 44.980469 55.503906 C 44.988281 55.507812 44.996094 55.511719 45.003906 55.515625 C 45.125 55.558594 45.246094 55.601562 45.363281 55.648438 C 45.453125 55.683594 45.542969 55.71875 45.632812 55.753906 C 45.871094 55.847656 46.101562 55.945312 46.332031 56.046875 L 46.632812 56.183594 C 46.722656 56.222656 46.8125 56.265625 46.90625 56.308594 C 46.988281 56.351562 47.070312 56.386719 47.148438 56.429688 C 47.226562 56.464844 47.300781 56.503906 47.375 56.539062 C 47.421875 56.566406 47.472656 56.589844 47.519531 56.613281 C 47.71875 56.714844 47.910156 56.820312 48.101562 56.925781 C 48.171875 56.964844 48.242188 57.003906 48.308594 57.042969 C 48.355469 57.070312 48.398438 57.09375 48.441406 57.117188 L 48.605469 57.210938 L 48.769531 57.3125 L 48.875 57.375 C 48.980469 57.4375 49.078125 57.5 49.179688 57.5625 C 49.289062 57.632812 49.394531 57.699219 49.503906 57.773438 "
        fill-opacity="1" fill-rule="nonzero" />
    <path fill="var(--av-skin)"
        d="M 42.84375 48.195312 L 42.84375 58.683594 C 42.84375 61.332031 40.671875 63.507812 38.019531 63.507812 L 37.003906 63.507812 C 34.351562 63.507812 32.183594 61.332031 32.183594 58.683594 L 32.183594 48.195312 C 32.183594 45.542969 34.351562 43.378906 37.003906 43.378906 L 38.019531 43.378906 C 40.671875 43.378906 42.84375 45.542969 42.84375 48.195312 "
        fill-opacity="1" fill-rule="nonzero" />
    <path fill="var(--av-skinD)"
        d="M 42.84375 48.195312 L 42.84375 53.746094 C 41.257812 54.625 39.578125 55.136719 37.871094 55.136719 C 35.859375 55.136719 33.9375 54.578125 32.183594 53.601562 L 32.183594 48.195312 C 32.183594 45.542969 34.351562 43.378906 37.003906 43.378906 L 38.019531 43.378906 C 40.671875 43.378906 42.84375 45.542969 42.84375 48.195312 "
        fill-opacity="1" fill-rule="nonzero" />
    <path fill="var(--av-skin)"
        d="M 50.507812 44.152344 C 50.507812 44.152344 53.003906 43.304688 54.601562 40.519531 C 56.332031 37.5 55.246094 35.613281 54.902344 35.207031 C 53.960938 34.09375 52.511719 34.808594 52.273438 35.207031 C 52.035156 35.605469 48.578125 41.882812 50.507812 44.152344 "
        fill-opacity="1" fill-rule="nonzero" />
    <path fill="var(--av-skinD)"
        d="M 52.957031 36.199219 C 52.957031 36.199219 54.539062 36.398438 53.984375 38.628906 C 53.425781 40.855469 51.960938 41.738281 49.972656 42.875 C 47.984375 44.015625 50.96875 36.652344 52.957031 36.199219 "
        fill-opacity="1" fill-rule="nonzero" />
    <path fill="var(--av-skin)"
        d="M 25.164062 44.152344 C 25.164062 44.152344 22.667969 43.304688 21.074219 40.519531 C 19.339844 37.5 20.425781 35.613281 20.769531 35.207031 C 21.707031 34.09375 23.15625 34.808594 23.394531 35.207031 C 23.632812 35.605469 27.09375 41.882812 25.164062 44.152344 "
        fill-opacity="1" fill-rule="nonzero" />
    <path fill="var(--av-skinD)"
        d="M 22.714844 36.199219 C 22.714844 36.199219 21.132812 36.398438 21.6875 38.628906 C 22.246094 40.855469 23.710938 41.738281 25.699219 42.875 C 27.691406 44.015625 24.707031 36.652344 22.714844 36.199219 "
        fill-opacity="1" fill-rule="nonzero" />
    <path fill="var(--av-skin)"
        d="M 52.957031 34.726562 C 52.957031 25.578125 46.203125 18.160156 37.871094 18.160156 C 29.539062 18.160156 22.78125 25.578125 22.78125 34.726562 C 22.78125 43.875 29.539062 53.441406 37.871094 53.441406 C 45.699219 53.441406 52.957031 43.800781 52.957031 34.726562 "
        fill-opacity="1" fill-rule="nonzero" />
    <path fill="var(--av-hair)"
        d="M 39.226562 28.046875 C 39.226562 28.046875 42.066406 37.175781 52.742188 36.269531 C 52.742188 36.269531 54.605469 33.578125 53.972656 27.714844 C 53.261719 21.113281 47.414062 15.554688 37.871094 17.542969 C 37.871094 17.542969 37 22.238281 39.226562 28.046875 "
        fill-opacity="1" fill-rule="nonzero" />
    <path fill="var(--av-hair)"
        d="M 39.707031 18.160156 C 39.707031 18.160156 40.101562 16.429688 38.667969 15.078125 C 37.238281 13.726562 17.074219 17.136719 22.09375 36.488281 C 22.09375 36.488281 27.203125 23.828125 38.910156 22.875 L 39.707031 18.160156 "
        fill-opacity="1" fill-rule="nonzero" />
</svg>