<svg xmlns="http://www.w3.org/2000/svg" xmlns:xlink="http://www.w3.org/1999/xlink" width="100"
    zoomAndPan="magnify" viewBox="0 0 75 74.999997" height="100" preserveAspectRatio="xMidYMid meet"
    version="1.0">
    <path fill="var(--av-bg)"
        d="M 37.882812 0.210938 C 17.292969 0 0.425781 16.589844 0.214844 37.265625 C 0.00390625 57.945312 16.527344 74.878906 37.121094 75.085938 C 57.714844 75.300781 74.574219 58.710938 74.785156 38.03125 C 74.996094 17.355469 58.476562 0.421875 37.882812 0.207031 "
        fill-opacity="1" fill-rule="nonzero" />
    <path fill="var(--av-shirt)"
        d="M 58.871094 75.414062 C 57.011719 76.777344 55.019531 77.96875 52.921875 78.960938 C 52.601562 79.113281 52.277344 79.257812 51.957031 79.398438 C 47.394531 81.394531 42.34375 82.484375 37.046875 82.429688 C 31.746094 82.375 26.722656 81.183594 22.199219 79.09375 C 21.878906 78.945312 21.558594 78.792969 21.246094 78.636719 C 19.164062 77.597656 17.195312 76.367188 15.367188 74.96875 C 15.765625 67.734375 19.660156 61.453125 25.367188 57.777344 C 28.816406 55.554688 32.929688 54.285156 37.332031 54.328125 C 38.003906 54.335938 38.667969 54.375 39.324219 54.441406 C 42.964844 54.808594 46.339844 56.078125 49.222656 58.019531 C 51.816406 59.765625 54.011719 62.058594 55.652344 64.726562 C 57.578125 67.855469 58.738281 71.507812 58.871094 75.414062 "
        fill-opacity="1" fill-rule="nonzero" />
    <path fill="var(--av-skin)"
        d="M 49.222656 58.019531 C 48.863281 60.542969 47.734375 62.8125 46.074219 64.578125 C 43.851562 66.945312 40.6875 68.414062 37.1875 68.378906 C 31.582031 68.320312 26.914062 64.421875 25.628906 59.195312 C 25.515625 58.734375 25.425781 58.257812 25.367188 57.777344 C 28.816406 55.554688 32.925781 54.285156 37.332031 54.332031 C 38.003906 54.339844 38.667969 54.375 39.324219 54.441406 C 39.4375 54.453125 39.550781 54.464844 39.664062 54.480469 C 39.734375 54.484375 39.804688 54.492188 39.871094 54.503906 C 39.949219 54.511719 40.027344 54.523438 40.105469 54.535156 C 40.152344 54.539062 40.203125 54.546875 40.25 54.554688 C 40.316406 54.566406 40.390625 54.578125 40.460938 54.585938 C 40.515625 54.59375 40.570312 54.605469 40.625 54.613281 C 40.675781 54.621094 40.722656 54.625 40.769531 54.636719 C 40.851562 54.648438 40.929688 54.664062 41.007812 54.675781 C 41.351562 54.742188 41.699219 54.8125 42.035156 54.890625 C 42.113281 54.90625 42.1875 54.925781 42.265625 54.945312 C 42.308594 54.957031 42.351562 54.964844 42.394531 54.980469 C 42.472656 55 42.558594 55.015625 42.636719 55.042969 C 42.648438 55.042969 42.660156 55.046875 42.671875 55.046875 C 42.773438 55.074219 42.875 55.101562 42.976562 55.132812 C 43.085938 55.160156 43.1875 55.191406 43.292969 55.222656 C 43.414062 55.257812 43.53125 55.292969 43.652344 55.332031 C 43.746094 55.359375 43.839844 55.390625 43.929688 55.421875 C 43.992188 55.441406 44.050781 55.464844 44.105469 55.480469 C 44.203125 55.515625 44.300781 55.550781 44.398438 55.582031 C 44.515625 55.625 44.632812 55.664062 44.746094 55.710938 C 44.753906 55.714844 44.761719 55.71875 44.769531 55.722656 C 44.890625 55.765625 45.007812 55.8125 45.128906 55.855469 C 45.214844 55.894531 45.304688 55.929688 45.394531 55.964844 C 45.628906 56.0625 45.855469 56.160156 46.085938 56.265625 C 46.183594 56.3125 46.285156 56.355469 46.382812 56.40625 C 46.472656 56.445312 46.5625 56.488281 46.652344 56.535156 C 46.734375 56.574219 46.8125 56.613281 46.894531 56.65625 C 46.96875 56.691406 47.042969 56.730469 47.117188 56.769531 C 47.164062 56.792969 47.210938 56.816406 47.261719 56.84375 C 47.457031 56.945312 47.648438 57.054688 47.835938 57.160156 C 47.90625 57.199219 47.976562 57.242188 48.042969 57.28125 C 48.085938 57.304688 48.128906 57.328125 48.171875 57.355469 L 48.332031 57.453125 C 48.386719 57.484375 48.441406 57.519531 48.496094 57.554688 C 48.53125 57.574219 48.566406 57.597656 48.601562 57.617188 C 48.703125 57.679688 48.804688 57.742188 48.902344 57.808594 C 49.011719 57.878906 49.117188 57.949219 49.222656 58.019531 "
        fill-opacity="1" fill-rule="nonzero" />
    <path fill="var(--av-skin)"
        d="M 42.695312 48.386719 L 42.585938 58.859375 C 42.558594 61.507812 40.378906 63.65625 37.742188 63.632812 L 36.730469 63.617188 C 34.09375 63.59375 31.957031 61.402344 31.988281 58.753906 L 32.09375 48.28125 C 32.121094 45.632812 34.300781 43.488281 36.9375 43.515625 L 37.945312 43.527344 C 40.585938 43.554688 42.722656 45.742188 42.695312 48.386719 "
        fill-opacity="1" fill-rule="nonzero" />
    <path fill="var(--av-skinD)"
        d="M 42.695312 48.386719 L 42.636719 53.929688 C 41.050781 54.796875 39.375 55.289062 37.679688 55.269531 C 35.675781 55.25 33.773438 54.671875 32.039062 53.679688 L 32.09375 48.28125 C 32.121094 45.632812 34.300781 43.488281 36.9375 43.515625 L 37.945312 43.527344 C 40.585938 43.554688 42.722656 45.742188 42.695312 48.386719 "
        fill-opacity="1" fill-rule="nonzero" />
    <path fill="var(--av-skin)"
        d="M 50.359375 44.429688 C 50.359375 44.429688 52.851562 43.605469 54.46875 40.84375 C 56.222656 37.84375 55.160156 35.949219 54.820312 35.539062 C 53.898438 34.417969 52.449219 35.117188 52.210938 35.511719 C 51.96875 35.90625 48.464844 42.140625 50.359375 44.429688 "
        fill-opacity="1" fill-rule="nonzero" />
    <path fill="var(--av-skinD)"
        d="M 52.878906 36.507812 C 52.878906 36.507812 54.449219 36.726562 53.871094 38.945312 C 53.296875 41.167969 51.832031 42.03125 49.839844 43.148438 C 47.851562 44.265625 50.894531 36.941406 52.878906 36.507812 "
        fill-opacity="1" fill-rule="nonzero" />
    <path fill="var(--av-skin)"
        d="M 25.15625 44.171875 C 25.15625 44.171875 22.679688 43.296875 21.121094 40.5 C 19.425781 37.464844 20.527344 35.59375 20.875 35.191406 C 21.820312 34.089844 23.253906 34.816406 23.484375 35.21875 C 23.71875 35.617188 27.09375 41.921875 25.15625 44.171875 "
        fill-opacity="1" fill-rule="nonzero" />
    <path fill="var(--av-skinD)"
        d="M 22.800781 36.199219 C 22.800781 36.199219 21.222656 36.386719 21.753906 38.617188 C 22.285156 40.847656 23.730469 41.742188 25.699219 42.902344 C 27.667969 44.058594 24.773438 36.671875 22.800781 36.199219 "
        fill-opacity="1" fill-rule="nonzero" />
    <path fill="var(--av-hair)"
        d="M 23.046875 17.09375 C 23.152344 18.820312 22.882812 34.730469 22.882812 34.730469 L 52.890625 35.039062 C 52.890625 35.039062 54.617188 21.230469 53.070312 17.523438 C 51.523438 13.808594 50.058594 17.371094 50.058594 17.371094 C 50.058594 17.371094 47.988281 14.109375 43.023438 16.226562 C 43.023438 16.226562 42.257812 14.152344 39.046875 14.792969 C 39.046875 14.792969 35.289062 11.019531 33 14.097656 C 33 14.097656 29.585938 11.4375 28.132812 14.285156 C 28.132812 14.285156 22.75 12.441406 23.046875 17.09375 "
        fill-opacity="1" fill-rule="nonzero" />
    <path fill="var(--av-skin)"
        d="M 52.890625 35.039062 C 52.984375 25.902344 46.339844 18.425781 38.054688 18.34375 C 29.765625 18.257812 22.976562 25.59375 22.882812 34.730469 C 22.789062 43.871094 29.410156 53.492188 37.695312 53.574219 C 45.484375 53.65625 52.800781 44.101562 52.890625 35.039062 "
        fill-opacity="1" fill-rule="nonzero" />
    <path fill="var(--av-hair)"
        d="M 52.816406 21.097656 L 39.742188 16.550781 L 38.398438 16.539062 L 37.71875 16.527344 L 36.375 16.515625 L 23.207031 20.789062 L 22.851562 34.730469 C 23.195312 31.632812 25.972656 23.5625 28.570312 24.898438 C 30.679688 25.984375 35.773438 26.472656 37.613281 26.621094 L 37.613281 26.660156 C 37.613281 26.660156 37.738281 26.65625 37.953125 26.644531 C 38.167969 26.660156 38.292969 26.667969 38.292969 26.667969 L 38.296875 26.625 C 40.136719 26.519531 45.238281 26.136719 47.371094 25.089844 C 49.996094 23.808594 52.609375 31.933594 52.890625 35.039062 L 52.816406 21.097656 "
        fill-opacity="1" fill-rule="nonzero" />
</svg>