<svg xmlns="http://www.w3.org/2000/svg" xmlns:xlink="http://www.w3.org/1999/xlink" width="100"
    zoomAndPan="magnify" viewBox="0 0 75 74.999997" height="100" preserveAspectRatio="xMidYMid meet"
    version="1.0">
    <path fill="var(--av-bg)"
        d="M 75 37.578125 C 75 58.328125 58.214844 75.144531 37.511719 75.144531 C 16.808594 75.144531 0.0273438 58.328125 0.0273438 37.578125 C 0.0234375 16.832031 16.808594 0.0117188 37.511719 0.0117188 C 58.214844 0.0117188 75 16.832031 75 37.578125 "
        fill-opacity="1" fill-rule="nonzero" />
    <path fill="var(--av-hair)"
        d="M 53.316406 35.441406 C 53.316406 35.441406 55.125 23.878906 54.101562 20.371094 C 54.101562 20.371094 51.726562 15.746094 48.304688 14.230469 L 49.925781 17.582031 C 49.925781 17.582031 44.804688 11.523438 33.425781 12.957031 L 35.414062 14.632812 C 35.414062 14.632812 27.476562 14.828125 22.933594 12.738281 C 22.933594 12.738281 24.039062 15.90625 24.910156 16.386719 C 25.789062 16.863281 22.84375 15.109375 22.367188 13.59375 C 22.367188 13.59375 20.355469 18.382812 21.570312 26.59375 L 20.695312 24.679688 C 20.695312 24.679688 20.695312 32.164062 22.046875 34.800781 C 23.402344 37.433594 28.175781 39.679688 28.175781 39.679688 L 53.316406 35.441406 "
        fill-opacity="1" fill-rule="nonzero" />
    <path fill="var(--av-shirt)"
        d="M 59.378906 75.246094 C 57.527344 76.636719 55.539062 77.851562 53.433594 78.867188 C 53.113281 79.023438 52.792969 79.171875 52.46875 79.316406 C 47.902344 81.367188 42.84375 82.507812 37.511719 82.507812 C 32.183594 82.507812 27.121094 81.367188 22.554688 79.316406 C 22.230469 79.171875 21.90625 79.023438 21.589844 78.867188 C 19.484375 77.847656 17.496094 76.636719 15.644531 75.246094 C 15.96875 67.984375 19.816406 61.640625 25.519531 57.894531 C 28.964844 55.628906 33.085938 54.316406 37.511719 54.316406 C 38.1875 54.316406 38.855469 54.347656 39.511719 54.40625 C 43.179688 54.738281 46.585938 55.976562 49.503906 57.894531 C 52.128906 59.621094 54.359375 61.894531 56.035156 64.554688 C 58.003906 67.675781 59.203125 71.328125 59.378906 75.246094 "
        fill-opacity="1" fill-rule="nonzero" />
    <path fill="var(--av-skin)"
        d="M 49.503906 57.894531 C 49.167969 60.429688 48.054688 62.71875 46.40625 64.507812 C 44.195312 66.90625 41.03125 68.410156 37.511719 68.410156 C 31.875 68.410156 27.140625 64.546875 25.796875 59.320312 C 25.675781 58.855469 25.585938 58.378906 25.519531 57.894531 C 28.964844 55.628906 33.085938 54.316406 37.511719 54.316406 C 38.1875 54.316406 38.855469 54.34375 39.515625 54.40625 C 39.628906 54.414062 39.742188 54.425781 39.855469 54.441406 C 39.925781 54.445312 40 54.453125 40.066406 54.464844 C 40.148438 54.46875 40.226562 54.484375 40.300781 54.492188 C 40.351562 54.496094 40.398438 54.503906 40.449219 54.511719 C 40.515625 54.519531 40.589844 54.53125 40.660156 54.539062 C 40.714844 54.546875 40.769531 54.558594 40.828125 54.5625 C 40.875 54.570312 40.921875 54.578125 40.96875 54.585938 C 41.050781 54.601562 41.128906 54.613281 41.210938 54.625 C 41.558594 54.6875 41.90625 54.753906 42.246094 54.828125 L 42.476562 54.878906 C 42.519531 54.890625 42.566406 54.902344 42.609375 54.914062 C 42.6875 54.933594 42.773438 54.953125 42.851562 54.972656 C 42.867188 54.976562 42.878906 54.976562 42.886719 54.980469 C 42.988281 55.007812 43.09375 55.03125 43.191406 55.0625 C 43.300781 55.085938 43.410156 55.117188 43.515625 55.148438 C 43.636719 55.183594 43.757812 55.21875 43.878906 55.253906 C 43.972656 55.285156 44.0625 55.3125 44.15625 55.34375 C 44.214844 55.363281 44.277344 55.382812 44.335938 55.402344 C 44.433594 55.433594 44.53125 55.464844 44.628906 55.5 C 44.746094 55.539062 44.863281 55.582031 44.980469 55.625 C 44.988281 55.628906 44.996094 55.628906 45.003906 55.632812 C 45.125 55.675781 45.246094 55.722656 45.363281 55.765625 C 45.453125 55.804688 45.542969 55.835938 45.632812 55.875 C 45.871094 55.96875 46.101562 56.066406 46.332031 56.167969 L 46.632812 56.304688 C 46.722656 56.34375 46.8125 56.386719 46.90625 56.429688 C 46.988281 56.46875 47.070312 56.507812 47.148438 56.550781 C 47.226562 56.585938 47.300781 56.625 47.375 56.660156 C 47.421875 56.6875 47.472656 56.710938 47.519531 56.734375 C 47.71875 56.835938 47.910156 56.941406 48.101562 57.046875 C 48.171875 57.085938 48.242188 57.125 48.308594 57.164062 C 48.355469 57.191406 48.398438 57.214844 48.441406 57.238281 L 48.605469 57.332031 L 48.769531 57.433594 L 48.875 57.5 C 48.980469 57.558594 49.078125 57.621094 49.179688 57.683594 C 49.289062 57.753906 49.394531 57.824219 49.503906 57.894531 "
        fill-opacity="1" fill-rule="nonzero" />
    <path fill="var(--av-skin)"
        d="M 42.84375 48.300781 L 42.84375 58.808594 C 42.84375 61.464844 40.671875 63.640625 38.019531 63.640625 L 37.003906 63.640625 C 34.351562 63.640625 32.183594 61.464844 32.183594 58.808594 L 32.183594 48.300781 C 32.183594 45.640625 34.351562 43.46875 37.003906 43.46875 L 38.019531 43.46875 C 40.671875 43.46875 42.84375 45.640625 42.84375 48.300781 "
        fill-opacity="1" fill-rule="nonzero" />
    <path fill="var(--av-skinD)"
        d="M 42.84375 48.300781 L 42.84375 53.859375 C 41.257812 54.742188 39.578125 55.253906 37.871094 55.253906 C 35.859375 55.253906 33.9375 54.695312 32.183594 53.71875 L 32.183594 48.300781 C 32.183594 45.640625 34.351562 43.46875 37.003906 43.46875 L 38.019531 43.46875 C 40.671875 43.46875 42.84375 45.640625 42.84375 48.300781 "
        fill-opacity="1" fill-rule="nonzero" />
    <path fill="var(--av-skin)"
        d="M 50.507812 44.246094 C 50.507812 44.246094 53.003906 43.394531 54.601562 40.605469 C 56.332031 37.578125 55.246094 35.691406 54.902344 35.28125 C 53.960938 34.164062 52.511719 34.882812 52.273438 35.28125 C 52.035156 35.679688 48.578125 41.972656 50.507812 44.246094 "
        fill-opacity="1" fill-rule="nonzero" />
    <path fill="var(--av-skinD)"
        d="M 52.957031 36.273438 C 52.957031 36.273438 54.539062 36.476562 53.984375 38.710938 C 53.425781 40.945312 51.960938 41.828125 49.972656 42.96875 C 47.984375 44.109375 50.96875 36.730469 52.957031 36.273438 "
        fill-opacity="1" fill-rule="nonzero" />
    <path fill="var(--av-skin)"
        d="M 25.164062 44.246094 C 25.164062 44.246094 22.667969 43.394531 21.074219 40.605469 C 19.339844 37.578125 20.425781 35.691406 20.769531 35.28125 C 21.707031 34.164062 23.15625 34.882812 23.394531 35.28125 C 23.632812 35.679688 27.09375 41.972656 25.164062 44.246094 "
        fill-opacity="1" fill-rule="nonzero" />
    <path fill="var(--av-skinD)"
        d="M 22.714844 36.273438 C 22.714844 36.273438 21.132812 36.476562 21.6875 38.710938 C 22.246094 40.945312 23.710938 41.828125 25.699219 42.96875 C 27.691406 44.109375 24.707031 36.730469 22.714844 36.273438 "
        fill-opacity="1" fill-rule="nonzero" />
    <path fill="var(--av-skin)"
        d="M 52.957031 34.800781 C 52.957031 25.632812 46.203125 18.199219 37.871094 18.199219 C 29.539062 18.199219 22.78125 25.632812 22.78125 34.800781 C 22.78125 43.96875 29.539062 53.554688 37.871094 53.554688 C 45.699219 53.554688 52.957031 43.894531 52.957031 34.800781 "
        fill-opacity="1" fill-rule="nonzero" />
    <path fill="var(--av-hair)"
        d="M 52.742188 20.808594 L 39.546875 16.386719 L 36.160156 16.386719 L 22.96875 20.808594 L 22.753906 34.800781 C 23.070312 31.6875 25.777344 23.5625 28.402344 24.875 C 30.535156 25.945312 35.660156 26.382812 37.515625 26.507812 L 37.515625 26.550781 C 37.515625 26.550781 37.636719 26.542969 37.855469 26.53125 C 38.074219 26.542969 38.195312 26.550781 38.195312 26.550781 L 38.195312 26.507812 C 40.050781 26.382812 45.175781 25.945312 47.304688 24.875 C 49.929688 23.5625 52.640625 31.6875 52.957031 34.800781 L 52.742188 20.808594 "
        fill-opacity="1" fill-rule="nonzero" />
</svg>