<svg xmlns="http://www.w3.org/2000/svg" xmlns:xlink="http://www.w3.org/1999/xlink" width="100"
    zoomAndPan="magnify" viewBox="0 0 75 74.999997" height="100" preserveAspectRatio="xMidYMid meet"
    version="1.0">
    <path fill="var(--av-bg)"
        d="M 75 37.578125 C 75 58.328125 58.214844 75.144531 37.511719 75.144531 C 16.808594 75.144531 0.0273438 58.328125 0.0273438 37.578125 C 0.0234375 16.832031 16.808594 0.0117188 37.511719 0.0117188 C 58.214844 0.0117188 75 16.832031 75 37.578125 "
        fill-opacity="1" fill-rule="nonzero" />
    <path fill="var(--av-hair)"
        d="M 52.109375 18.027344 C 52.109375 23.414062 47.757812 27.777344 42.382812 27.777344 C 37.011719 27.777344 32.65625 23.414062 32.65625 18.027344 C 32.65625 12.644531 37.011719 8.28125 42.382812 8.28125 C 47.757812 8.28125 52.109375 12.644531 52.109375 18.027344 "
        fill-opacity="1" fill-rule="nonzero" />
    <path fill="var(--av-hair)"
        d="M 34.378906 18.027344 L 32.65625 18.027344 C 32.65625 18.027344 30.5 47.105469 36.109375 56.316406 C 41.71875 65.523438 57.410156 65.304688 59.441406 54.902344 C 59.441406 54.902344 49.316406 59.058594 52.109375 18.027344 L 34.378906 18.027344 "
        fill-opacity="1" fill-rule="nonzero" />
    <path fill="var(--av-shirt)"
        d="M 59.324219 75.246094 C 57.46875 76.636719 55.476562 77.851562 53.375 78.867188 C 53.058594 79.023438 52.734375 79.171875 52.410156 79.316406 C 47.84375 81.367188 42.78125 82.507812 37.453125 82.507812 C 32.125 82.507812 27.0625 81.367188 22.496094 79.316406 C 22.171875 79.171875 21.847656 79.023438 21.527344 78.867188 C 19.425781 77.847656 17.4375 76.636719 15.582031 75.246094 C 15.90625 67.984375 19.761719 61.640625 25.460938 57.894531 C 28.90625 55.628906 33.027344 54.316406 37.453125 54.316406 C 38.128906 54.316406 38.796875 54.347656 39.453125 54.40625 C 43.121094 54.738281 46.523438 55.976562 49.445312 57.894531 C 52.070312 59.621094 54.304688 61.894531 55.976562 64.554688 C 57.945312 67.675781 59.148438 71.328125 59.324219 75.246094 "
        fill-opacity="1" fill-rule="nonzero" />
    <path fill="var(--av-skin)"
        d="M 49.445312 57.894531 C 49.109375 60.429688 47.996094 62.71875 46.347656 64.507812 C 44.136719 66.90625 40.96875 68.410156 37.453125 68.410156 C 31.816406 68.410156 27.082031 64.546875 25.738281 59.320312 C 25.617188 58.855469 25.523438 58.378906 25.460938 57.894531 C 28.90625 55.628906 33.023438 54.316406 37.453125 54.316406 C 38.128906 54.316406 38.796875 54.34375 39.453125 54.40625 C 39.570312 54.414062 39.683594 54.425781 39.796875 54.441406 C 39.867188 54.445312 39.9375 54.453125 40.007812 54.464844 C 40.085938 54.46875 40.167969 54.484375 40.242188 54.492188 C 40.289062 54.496094 40.339844 54.503906 40.386719 54.511719 C 40.457031 54.519531 40.527344 54.53125 40.601562 54.539062 C 40.65625 54.546875 40.710938 54.558594 40.769531 54.5625 C 40.816406 54.570312 40.863281 54.578125 40.910156 54.585938 C 40.992188 54.601562 41.074219 54.613281 41.15625 54.625 C 41.5 54.6875 41.847656 54.753906 42.1875 54.828125 C 42.265625 54.847656 42.34375 54.863281 42.417969 54.878906 C 42.460938 54.890625 42.503906 54.902344 42.546875 54.914062 C 42.628906 54.933594 42.714844 54.953125 42.792969 54.972656 C 42.808594 54.976562 42.820312 54.976562 42.828125 54.980469 C 42.929688 55.007812 43.03125 55.03125 43.132812 55.0625 C 43.242188 55.085938 43.351562 55.117188 43.457031 55.148438 C 43.578125 55.183594 43.699219 55.21875 43.816406 55.253906 C 43.910156 55.285156 44.003906 55.3125 44.097656 55.34375 C 44.15625 55.363281 44.21875 55.382812 44.277344 55.402344 C 44.375 55.433594 44.472656 55.464844 44.566406 55.5 C 44.6875 55.539062 44.804688 55.582031 44.921875 55.625 C 44.929688 55.628906 44.9375 55.628906 44.945312 55.632812 C 45.066406 55.675781 45.1875 55.722656 45.304688 55.765625 C 45.394531 55.804688 45.484375 55.835938 45.574219 55.875 C 45.8125 55.96875 46.042969 56.066406 46.273438 56.167969 L 46.574219 56.304688 C 46.664062 56.34375 46.753906 56.386719 46.84375 56.429688 C 46.929688 56.46875 47.007812 56.507812 47.089844 56.550781 C 47.167969 56.585938 47.242188 56.625 47.316406 56.660156 C 47.363281 56.6875 47.414062 56.710938 47.464844 56.734375 C 47.660156 56.835938 47.855469 56.941406 48.042969 57.046875 C 48.113281 57.085938 48.183594 57.125 48.25 57.164062 C 48.296875 57.191406 48.339844 57.214844 48.382812 57.238281 L 48.542969 57.332031 C 48.597656 57.367188 48.65625 57.402344 48.710938 57.433594 C 48.746094 57.457031 48.78125 57.476562 48.816406 57.5 C 48.917969 57.558594 49.019531 57.621094 49.121094 57.683594 C 49.230469 57.753906 49.335938 57.824219 49.445312 57.894531 "
        fill-opacity="1" fill-rule="nonzero" />
    <path fill="var(--av-skin)"
        d="M 41.667969 49.398438 L 41.667969 57.710938 C 41.667969 59.8125 39.953125 61.535156 37.855469 61.535156 L 37.050781 61.535156 C 34.953125 61.535156 33.238281 59.8125 33.238281 57.710938 L 33.238281 49.398438 C 33.238281 47.296875 34.953125 45.578125 37.050781 45.578125 L 37.855469 45.578125 C 39.953125 45.578125 41.667969 47.296875 41.667969 49.398438 "
        fill-opacity="1" fill-rule="nonzero" />
    <path fill="var(--av-skinD)"
        d="M 41.667969 49.398438 L 41.667969 53.796875 C 40.417969 54.496094 39.085938 54.902344 37.734375 54.902344 C 36.148438 54.902344 34.628906 54.457031 33.238281 53.683594 L 33.238281 49.398438 C 33.238281 47.296875 34.953125 45.578125 37.050781 45.578125 L 37.855469 45.578125 C 39.953125 45.578125 41.667969 47.296875 41.667969 49.398438 "
        fill-opacity="1" fill-rule="nonzero" />
    <path fill="var(--av-skin)"
        d="M 50.449219 44.246094 C 50.449219 44.246094 52.945312 43.394531 54.542969 40.605469 C 56.273438 37.578125 55.1875 35.691406 54.84375 35.28125 C 53.90625 34.164062 52.457031 34.882812 52.21875 35.28125 C 51.980469 35.679688 48.523438 41.972656 50.449219 44.246094 "
        fill-opacity="1" fill-rule="nonzero" />
    <path fill="var(--av-skinD)"
        d="M 52.898438 36.273438 C 52.898438 36.273438 54.480469 36.476562 53.925781 38.710938 C 53.367188 40.945312 51.902344 41.828125 49.914062 42.96875 C 47.925781 44.109375 50.910156 36.730469 52.898438 36.273438 "
        fill-opacity="1" fill-rule="nonzero" />
    <path fill="var(--av-skin)"
        d="M 25.105469 44.246094 C 25.105469 44.246094 22.609375 43.394531 21.011719 40.605469 C 19.28125 37.578125 20.371094 35.691406 20.714844 35.28125 C 21.652344 34.164062 23.101562 34.882812 23.339844 35.28125 C 23.578125 35.679688 27.035156 41.972656 25.105469 44.246094 "
        fill-opacity="1" fill-rule="nonzero" />
    <path fill="var(--av-skinD)"
        d="M 22.660156 36.273438 C 22.660156 36.273438 21.074219 36.476562 21.632812 38.710938 C 22.1875 40.945312 23.652344 41.828125 25.640625 42.96875 C 27.628906 44.109375 24.648438 36.730469 22.660156 36.273438 "
        fill-opacity="1" fill-rule="nonzero" />
    <path fill="var(--av-skin)"
        d="M 52.898438 34.800781 C 52.898438 25.632812 46.144531 18.199219 37.8125 18.199219 C 29.480469 18.199219 22.726562 25.632812 22.726562 34.800781 C 22.726562 43.96875 29.480469 53.554688 37.8125 53.554688 C 45.640625 53.554688 52.898438 43.894531 52.898438 34.800781 "
        fill-opacity="1" fill-rule="nonzero" />
    <path fill="var(--av-hair)"
        d="M 39.167969 28.105469 C 39.167969 28.105469 42.007812 37.253906 52.683594 36.347656 C 52.683594 36.347656 54.542969 33.648438 53.914062 27.777344 C 53.203125 21.15625 47.355469 15.589844 37.8125 17.582031 C 37.8125 17.582031 36.941406 22.285156 39.167969 28.105469 "
        fill-opacity="1" fill-rule="nonzero" />
    <path fill="var(--av-hair)"
        d="M 39.644531 18.199219 C 39.644531 18.199219 40.042969 16.464844 38.613281 15.109375 C 37.179688 13.753906 18.214844 16.539062 22.726562 34.800781 C 22.726562 34.800781 27.144531 23.878906 38.851562 22.921875 L 39.644531 18.199219 "
        fill-opacity="1" fill-rule="nonzero" />
</svg>