<svg xmlns="http://www.w3.org/2000/svg" xmlns:xlink="http://www.w3.org/1999/xlink" width="200" zoomAndPan="magnify" viewBox="0 0 150 109.499999" height="146" preserveAspectRatio="xMidYMid meet" version="1.2"><defs><clipPath id="b18304a58f"><path d="M 94 0 L 149.65625 0 L 149.65625 49 L 94 49 Z M 94 0 "/></clipPath><clipPath id="a45f5ea1f7"><path d="M 1 94 L 136 94 L 136 109.003906 L 1 109.003906 Z M 1 94 "/></clipPath></defs><g id="b66c19e489"><g clip-rule="nonzero" clip-path="url(#b18304a58f)"><path style=" stroke:none;fill-rule:nonzero;fill:#ff9955;fill-opacity:1;" d="M 121.671875 -0.00390625 C 119.8125 0.0390625 118.113281 1.050781 117.179688 2.65625 L 95.222656 40.316406 C 93.730469 42.871094 94.589844 46.15625 97.140625 47.65625 C 97.960938 48.136719 98.886719 48.390625 99.839844 48.390625 L 143.753906 48.390625 C 146.707031 48.390625 149.09375 45.984375 149.09375 43.015625 C 149.09375 42.066406 148.839844 41.132812 148.363281 40.316406 L 126.414062 2.65625 C 125.429688 0.96875 123.617188 -0.046875 121.671875 -0.00390625 Z M 120.257812 11.738281 C 120.46875 11.734375 120.667969 11.769531 120.867188 11.835938 L 123.839844 12.863281 C 124.574219 13.113281 125.042969 13.820312 125.003906 14.597656 L 124.179688 29.085938 L 123.984375 32.449219 C 123.980469 33.640625 123.015625 34.605469 121.828125 34.605469 C 120.640625 34.605469 119.671875 33.640625 119.667969 32.449219 L 119.472656 29.085938 L 118.585938 13.578125 C 118.53125 12.613281 119.273438 11.785156 120.238281 11.746094 L 120.257812 11.746094 Z M 121.199219 37.410156 L 122.386719 37.410156 C 123.085938 37.410156 123.769531 37.890625 123.996094 38.554688 L 124.710938 40.597656 C 124.886719 41.109375 124.800781 41.707031 124.488281 42.148438 C 124.175781 42.589844 123.644531 42.867188 123.105469 42.871094 L 120.492188 42.871094 C 119.953125 42.871094 119.425781 42.59375 119.109375 42.148438 C 118.796875 41.703125 118.710938 41.109375 118.886719 40.597656 L 119.601562 38.554688 C 119.828125 37.890625 120.5 37.410156 121.199219 37.410156 Z M 121.199219 37.410156 "/></g><path style=" stroke:none;fill-rule:nonzero;fill:#6f918a;fill-opacity:1;" d="M 22.371094 16.632812 C 15.878906 16.632812 10.65625 21.882812 10.65625 28.394531 L 10.65625 90.035156 L 20.105469 90.035156 L 20.105469 28.402344 C 20.105469 26.992188 20.964844 26.121094 22.371094 26.121094 L 53.125 26.121094 L 53.125 26.128906 L 54.542969 30.15625 C 54.917969 31.238281 55.933594 31.972656 57.078125 31.976562 L 79.550781 31.976562 C 80.691406 31.96875 81.707031 31.238281 82.078125 30.15625 L 83.5 26.128906 L 83.5 26.121094 L 99.386719 26.121094 L 104.914062 16.632812 Z M 68.308594 21.449219 C 69.984375 21.445312 71.351562 22.804688 71.355469 24.492188 L 71.355469 24.5 C 71.355469 26.179688 70 27.550781 68.320312 27.554688 L 68.308594 27.554688 C 66.632812 27.554688 65.269531 26.191406 65.269531 24.503906 L 65.269531 24.5 C 65.269531 22.816406 66.628906 21.449219 68.308594 21.449219 Z M 68.308594 21.449219 "/><path style=" stroke:none;fill-rule:nonzero;fill:#6f918a;fill-opacity:1;" d="M 81.542969 43.34375 C 76.40625 43.414062 72.28125 47.613281 72.277344 52.765625 C 72.277344 57.972656 76.476562 62.195312 81.667969 62.195312 C 86.855469 62.195312 91.0625 57.984375 91.0625 52.78125 L 91.0625 52.773438 C 91.0625 47.570312 86.859375 43.351562 81.667969 43.351562 L 81.621094 43.351562 C 81.59375 43.347656 81.566406 43.34375 81.542969 43.34375 Z M 82.210938 45.546875 L 82.382812 45.546875 C 83.417969 45.589844 84.824219 46.316406 86.046875 47.445312 C 87.890625 49.132812 88.761719 51.1875 87.992188 52.03125 C 87.226562 52.875 85.117188 52.183594 83.273438 50.492188 L 83.265625 50.492188 C 81.425781 48.800781 80.554688 46.746094 81.328125 45.90625 C 81.523438 45.683594 81.828125 45.5625 82.210938 45.546875 Z M 82.210938 45.546875 "/><path style=" stroke:none;fill-rule:nonzero;fill:#6f918a;fill-opacity:1;" d="M 54.949219 43.34375 C 49.761719 43.34375 45.5625 47.5625 45.558594 52.765625 C 45.558594 57.972656 49.761719 62.195312 54.949219 62.195312 C 60.136719 62.195312 64.34375 57.984375 64.347656 52.78125 L 64.347656 52.773438 C 64.347656 47.585938 60.167969 43.375 54.996094 43.351562 C 54.984375 43.347656 54.964844 43.34375 54.949219 43.34375 Z M 54.21875 45.546875 L 54.414062 45.546875 C 54.796875 45.5625 55.097656 45.6875 55.296875 45.90625 C 56.0625 46.75 55.191406 48.804688 53.351562 50.492188 C 51.515625 52.183594 49.398438 52.871094 48.632812 52.03125 C 47.863281 51.1875 48.730469 49.136719 50.570312 47.445312 C 51.78125 46.324219 53.183594 45.59375 54.21875 45.546875 Z M 54.21875 45.546875 "/><g clip-rule="nonzero" clip-path="url(#a45f5ea1f7)"><path style=" stroke:none;fill-rule:nonzero;fill:#6f918a;fill-opacity:1;" d="M 5.636719 94.242188 C 2.796875 94.351562 0.875 97.1875 1.816406 99.875 L 4.027344 106.175781 C 4.621094 107.863281 6.203125 109.003906 7.992188 109.007812 L 128.632812 109.007812 C 130.417969 109.003906 132.007812 107.863281 132.597656 106.175781 L 134.808594 99.875 C 135.75 97.183594 133.828125 94.347656 130.984375 94.242188 C 130.9375 94.242188 130.894531 94.242188 130.847656 94.242188 L 87.097656 94.242188 C 87.082031 94.242188 87.066406 94.242188 87.050781 94.242188 C 86.265625 94.242188 85.566406 94.746094 85.3125 95.492188 L 84.710938 97.1875 C 84.414062 98.03125 83.625 98.601562 82.730469 98.605469 L 53.894531 98.605469 C 53.003906 98.601562 52.207031 98.03125 51.910156 97.1875 L 51.304688 95.492188 C 51.058594 94.746094 50.355469 94.242188 49.570312 94.242188 C 49.554688 94.242188 49.546875 94.242188 49.527344 94.242188 L 5.777344 94.242188 C 5.734375 94.242188 5.683594 94.242188 5.640625 94.242188 Z M 5.636719 94.242188 "/></g><path style=" stroke:none;fill-rule:nonzero;fill:#6f918a;fill-opacity:1;" d="M 68.144531 71.171875 C 60.324219 71.226562 52.917969 75.023438 47.707031 81.507812 C 46.894531 82.523438 47.058594 84.003906 48.070312 84.816406 C 48.8125 85.414062 49.835938 85.503906 50.664062 85.046875 C 55.828125 82.1875 61.988281 80.628906 68.308594 80.628906 C 74.625 80.628906 80.792969 82.1875 85.957031 85.046875 C 87.097656 85.671875 88.523438 85.25 89.144531 84.105469 C 89.597656 83.273438 89.507812 82.246094 88.917969 81.507812 C 83.671875 74.984375 76.253906 71.179688 68.320312 71.171875 C 68.269531 71.171875 68.199219 71.171875 68.144531 71.171875 Z M 68.144531 71.171875 "/><path style=" stroke:none;fill-rule:nonzero;fill:#6f918a;fill-opacity:1;" d="M 116.511719 51.957031 L 116.511719 90.035156 L 125.972656 90.035156 L 125.972656 51.957031 Z M 116.511719 51.957031 "/></g></svg>